<svg xmlns="http://www.w3.org/2000/svg" viewBox="0 0 41.1 26.713">
  <defs>
    <style>
      .cls-1 {
        fill: #5a5a5a;
      }

      .cls-2 {
        fill: #ff6767;
      }
    </style>
  </defs>
  <g id="Group_337" data-name="Group 337" transform="translate(-269 -18)">
    <path id="Path_31" data-name="Path 31" class="cls-1" d="M10.753,0V3.584H6.81A3.538,3.538,0,0,0,4.3,4.659L1.075,7.885A3.538,3.538,0,0,0,0,10.394v3.943a1.693,1.693,0,0,0,1.792,1.792H3.584a3.584,3.584,0,0,0,7.168,0H23.3a3.584,3.584,0,0,0,7.168,0H34.05V0ZM7.168,17.921a1.693,1.693,0,0,1-1.792-1.792,1.693,1.693,0,0,1,1.792-1.792,1.693,1.693,0,0,1,1.792,1.792A1.693,1.693,0,0,1,7.168,17.921ZM8.961,8.961H1.792L4.839,5.914a1.627,1.627,0,0,1,1.254-.538H8.961Zm17.921,8.961a1.693,1.693,0,0,1-1.792-1.792,1.792,1.792,0,0,1,3.584,0A1.693,1.693,0,0,1,26.882,17.921Z" transform="translate(269 25)"/>
    <g id="Group_287" data-name="Group 287">
      <g id="Group_286" data-name="Group 286">
        <circle id="Ellipse_67" data-name="Ellipse 67" class="cls-2" cx="7.05" cy="7.05" r="7.05" transform="translate(296 18)"/>
      </g>
    </g>
  </g>
</svg>
